<svg xmlns="http://www.w3.org/2000/svg" xmlns:xlink="http://www.w3.org/1999/xlink" width="140.035"
            height="111.078" viewBox="0 0 140.035 111.078">
            <defs>
              <clipPath id="clip-path">
                <path id="Path_8659" data-name="Path 8659"
                  d="M223.183,42.01c0-.359-.011-.685-.03-.95-.11-1.541-1.211-6.714-1.211-6.714l-3.412-3.082a7.314,7.314,0,0,0-1.541,2.642c-.148.445-.339.932-.554,1.448-.458-.31-.928-.611-1.416-.9-16.071-9.466-30.6-6.164-51.954-.88,0,0-18.052,4.843-27.738,3.522-6.33-.863-16.395-1.6-24.841-.061l-.12-9.332-4.7-8.659s-3.816,3.082-4.843,5.137S99.8,40.326,99.8,40.326l-3.375,3.082.541,1.311c-7.442,13.391-12.12,57.088,2.919,63.7,16.511,7.265,35.883,2.2,48.431,5.944s36.324,9.026,58.118,2.862,21.354-12.108,22.675-29.279C230.177,74.069,231.959,54.534,223.183,42.01Z"
                  transform="translate(-89.982 -19.046)" fill="none" />
              </clipPath>
            </defs>
            <g id="Group_8146" data-name="Group 8146" transform="translate(-89.982 -19.046)">
              <g id="Group_8115" data-name="Group 8115" transform="translate(90.325 26.553)">
                <g id="Group_8113" data-name="Group 8113" transform="translate(0.398 78.518)">
                  <path id="Path_8563" data-name="Path 8563"
                    d="M449.99,438.769h-.027a70.718,70.718,0,0,1-7.468-.62.711.711,0,1,1,.217-1.405,70.7,70.7,0,0,0,7.3.6.711.711,0,0,1-.026,1.421Z"
                    transform="translate(-356.184 -420.152)" fill="#d6a589" />
                  <path id="Path_8564" data-name="Path 8564"
                    d="M508.711,401.259a.711.711,0,0,1-.043-1.42c9.983-.614,23.9-3.28,33.5-12.493a.711.711,0,1,1,.984,1.026c-9.917,9.511-24.181,12.256-34.4,12.885Z"
                    transform="translate(-406.051 -382.745)" fill="#d6a589" />
                  <path id="Path_8565" data-name="Path 8565"
                    d="M583,424.595a.711.711,0,0,1-.131-1.409,39.612,39.612,0,0,0,14.529-6.621.711.711,0,0,1,.853,1.137,40.3,40.3,0,0,1-15.117,6.881A.72.72,0,0,1,583,424.595Z"
                    transform="translate(-462.089 -404.828)" fill="#d6a589" />
                  <path id="Path_8566" data-name="Path 8566"
                    d="M138.327,381.215h-.021l-.114,0c-5.2-.148-21-.6-31.691-2.5-10.993-1.957-13.364-8.265-13.46-8.533a.711.711,0,0,1,1.338-.481h0c.021.058,2.249,5.812,12.371,7.615,10.584,1.885,26.313,2.333,31.482,2.481l.114,0a.711.711,0,0,1-.02,1.422Z"
                    transform="translate(-93 -369.226)" fill="#d6a589" />
                </g>
                <g id="Group_8114" data-name="Group 8114" transform="translate(0)">
                  <path id="Path_8567" data-name="Path 8567"
                    d="M92.122,91.145a.711.711,0,0,1-.705-.627c-.047-.4-1.02-9.812,11.175-15.91,10.934-5.466,22.808-3.823,31.478-2.624.91.126,1.783.247,2.612.353a48.924,48.924,0,0,0,14.536-.74.711.711,0,1,1,.251,1.4,50.289,50.289,0,0,1-14.968.75c-.834-.107-1.711-.228-2.627-.355-8.486-1.175-20.108-2.782-30.647,2.487-11.31,5.655-10.409,14.382-10.4,14.47a.711.711,0,0,1-.622.79A.762.762,0,0,1,92.122,91.145Z"
                    transform="translate(-91.38 -65.58)" fill="#7cd1f0" />
                  <path id="Path_8568" data-name="Path 8568"
                    d="M369.009,60.185a.711.711,0,0,1-.19-1.4c2.359-.658,4.8-1.423,7.25-2.274a.711.711,0,1,1,.466,1.343c-2.479.86-4.947,1.634-7.334,2.3A.716.716,0,0,1,369.009,60.185Z"
                    transform="translate(-300.27 -54.789)" fill="#7cd1f0" />
                  <path id="Path_8569" data-name="Path 8569"
                    d="M584.27,66.438a.71.71,0,0,1-.618-.359C577.277,54.888,563.241,51.042,563.1,51a.711.711,0,0,1,.365-1.374c.6.159,14.747,4.027,21.422,15.745a.711.711,0,0,1-.617,1.063Z"
                    transform="translate(-446.819 -49.606)" fill="#96e7f5" />
                  <path id="Path_8570" data-name="Path 8570"
                    d="M196.042,56.516a.688.688,0,0,1-.107-.008c-9.43-1.429-15.4-.31-15.461-.3a.711.711,0,0,1-.272-1.4c.251-.049,6.25-1.181,15.946.288a.711.711,0,0,1-.106,1.414Z"
                    transform="translate(-157.948 -53.185)" fill="#7cd1f0" />
                </g>
              </g>
              <g id="Group_8128" data-name="Group 8128" transform="translate(89.982 19.046)">
                <g id="Group_8127" data-name="Group 8127" transform="translate(0)" clip-path="url(#clip-path)">
                  <path id="Path_8571" data-name="Path 8571"
                    d="M163.066,62.446s-18.052,4.843-27.738,3.522-28.122-2.345-36.115,4.623c-8.586,7.485-15.839,59.439.672,66.7s35.883,2.2,48.431,5.944,36.324,9.026,58.118,2.862,21.354-12.108,22.675-29.279,3.738-42.994-14.089-53.495C198.949,53.86,184.42,57.162,163.066,62.446Z"
                    transform="translate(-89.982 -47.916)" fill="#96e7f5" />
                  <g id="Group_8116" data-name="Group 8116" transform="translate(-8.217 31.26)">
                    <path id="Path_8572" data-name="Path 8572"
                      d="M60.111,200.537s20.914-3.3,51.293-2.862,36.544.88,46.01.44,52.394-8.806,52.394-8.806l-.661,24.436s-99.064,10.347-119.1,10.567-30.159.661-32.8-3.962S60.111,200.537,60.111,200.537Z"
                      transform="translate(-56.532 -178.743)" fill="#b8f4f5" />
                    <path id="Path_8573" data-name="Path 8573"
                      d="M77.6,163.467s21.354-2.862,32.8-3.522,46.89,1.541,64.5-.22,46.891-8.145,46.891-8.145l-1.1-5.283s-35,10.127-46.23,11.227-59.218.22-66.7.44-30.38,3.963-30.38,3.963Z"
                      transform="translate(-72.255 -146.296)" fill="#b8f4f5" />
                  </g>
                  <path id="Path_8574" data-name="Path 8574"
                    d="M154.242,69.274c18.712,0,41.607-1.761,57.9-5.944,4.94-1.268,9.576-2.516,13.639-3.64-13.232-4.7-26.334-1.668-44.227,2.76,0,0-18.052,4.843-27.738,3.522S125.691,63.627,117.7,70.6a14.664,14.664,0,0,0-3.211,4.933C123.182,73.3,140.722,69.274,154.242,69.274Z"
                    transform="translate(-108.468 -47.92)" fill="#7cd1f0" />
                  <path id="Path_8575" data-name="Path 8575"
                    d="M54.8,327.264s39.185,5.283,75.069,3.742,64.722-3.962,67.144-4.623,2.2,29.059,2.2,29.059-36.1,9.026-53.495,12.768-53.275,8.145-69.345,2.642a110.667,110.667,0,0,1-27.958-14.529l-3.3-15.85Z"
                    transform="translate(-56.136 -250.875)" fill="#d6a589" />
                  <path id="Path_8576" data-name="Path 8576"
                    d="M119.473,320.418c-1.138-.06-.909,3.891-.746,4.361.766,2.213,2.217,4.539,4.475,5.456,1.564.636,3.313.635,4.932,1.114a18.129,18.129,0,0,1,2.767,1.173q2.48,1.208,5,2.336a9.578,9.578,0,0,0,3.848,1.093c1.506,0,2.962-.695,4.465-.592,1.791.122,3.287,1.33,4.784,2.32a30.215,30.215,0,0,0,15.244,4.536c3.845.185,7.433.935,11.216,1.319,4.354.442,8.738.356,13.107.437a36.1,36.1,0,0,0,6.035-.226c1.46-.22,2.891-.618,4.359-.78,3.009-.332,6.068.339,9.069-.057,4.717-.623,8.931-3.83,13.689-3.78a19.663,19.663,0,0,0,3.683.03c2.093-.375,3.76-1.918,5.789-2.5,2-.572,4.049-.559,6.064-1,3.559-.773,5.922-4.333,9.4-5.409.957-.3,1.971-.393,2.91-.742,3.39-1.261,5.966-7.256,4.053-10.56l-50.193,1.468-62.814,1.174Z"
                    transform="translate(-111.563 -245.276)" fill="#edc2a8" />
                  <g id="Group_8117" data-name="Group 8117" transform="translate(14.372 83.27)">
                    <path id="Path_8577" data-name="Path 8577"
                      d="M364.791,413.138a.142.142,0,0,1,.039-.281c.019,0,1.919.179,4.785.382a.142.142,0,0,1-.02.284c-2.87-.2-4.773-.381-4.792-.383Z"
                      transform="translate(-311.566 -399.383)" fill="#d6a589" />
                    <path id="Path_8578" data-name="Path 8578"
                      d="M169.762,366.633a.14.14,0,0,1-.028,0c-13.292-2.688-21.09-6.432-21.168-6.469a.142.142,0,0,1,.124-.256c.077.038,7.846,3.766,21.1,6.446a.142.142,0,0,1-.028.282Z"
                      transform="translate(-148.486 -359.429)" fill="#d6a589" />
                    <path id="Path_8579" data-name="Path 8579"
                      d="M633.575,358.029a23.635,23.635,0,0,1-4.048,2.128c-.144.059-.081.3.065.237a23.938,23.938,0,0,0,4.107-2.153C633.831,358.155,633.708,357.942,633.575,358.029Z"
                      transform="translate(-511.293 -358.009)" fill="#d6a589" />
                    <path id="Path_8580" data-name="Path 8580"
                      d="M416.637,403.435c-2.346.436-4.708.773-7.076,1.063s-4.75.555-7.126.829l-4.053.467c-.155.018-.157.264,0,.246l7.222-.833c2.375-.274,4.751-.541,7.118-.881q2-.287,3.98-.655C416.858,403.643,416.792,403.406,416.637,403.435Z"
                      transform="translate(-336.905 -392.274)" fill="#d6a589" />
                    <path id="Path_8581" data-name="Path 8581"
                      d="M492.927,397.137a39.947,39.947,0,0,1-6.433,1.255c-.155.017-.157.263,0,.246a40.334,40.334,0,0,0,6.5-1.263A.123.123,0,0,0,492.927,397.137Z"
                      transform="translate(-403.371 -387.521)" fill="#d6a589" />
                  </g>
                  <g id="Group_8118" data-name="Group 8118" transform="translate(7.577 1.744)">
                    <path id="Path_8582" data-name="Path 8582"
                      d="M151.523,26.147a.157.157,0,0,0-.157.157v1.959a.157.157,0,0,0,.315,0V26.3A.158.158,0,0,0,151.523,26.147Z"
                      transform="translate(-143.863 -26.147)" fill="#f7e5b8" />
                    <path id="Path_8583" data-name="Path 8583"
                      d="M144.58,38.648c-.577-1.6-3.384-4.67-3.384-4.67s-2.807,3.07-3.384,4.67.866,3.227.866,3.227l2.518.024,2.519-.024S145.157,40.248,144.58,38.648Z"
                      transform="translate(-133.536 -32.054)" fill="#b8886d" />
                    <rect id="Rectangle_17338" data-name="Rectangle 17338" width="5.247" height="12.383"
                      transform="translate(5.037 10.739)" fill="#edd3c3" />
                    <path id="Path_8584" data-name="Path 8584"
                      d="M122.39,121.833s2.711.769,2.711,3.288h9.13c0-2.519,2.711-3.288,2.711-3.288Z"
                      transform="translate(-122.005 -98.327)" fill="#b8886d" />
                    <rect id="Rectangle_17339" data-name="Rectangle 17339" width="7.346" height="35.154"
                      transform="translate(3.988 28.263)" fill="#edd3c3" />
                    <rect id="Rectangle_17340" data-name="Rectangle 17340" width="8.867" height="1.399"
                      transform="translate(3.227 46.803)" fill="#dba281" />
                    <path id="Path_8585" data-name="Path 8585"
                      d="M164.034,161.648a1.037,1.037,0,0,0-.952,1.105v1.955h.952Z"
                      transform="translate(-152.701 -128.361)" fill="#b8886d" />
                    <rect id="Rectangle_17341" data-name="Rectangle 17341" width="9.13" height="1.574"
                      transform="translate(3.096 26.794)" fill="#dba281" />
                    <rect id="Rectangle_17342" data-name="Rectangle 17342" width="15.321" height="0.77" rx="0.385"
                      transform="translate(0 22.737)" fill="#ffe3d2" />
                    <rect id="Rectangle_17343" data-name="Rectangle 17343" width="5.527" height="0.525"
                      transform="translate(4.923 10.31)" fill="#dba281" />
                    <path id="Path_8586" data-name="Path 8586"
                      d="M143.583,65.291h-7a.385.385,0,0,0,0,.77h7a.385.385,0,0,0,0-.77Z"
                      transform="translate(-132.424 -55.675)" fill="#ffe3d2" />
                    <path id="Path_8587" data-name="Path 8587"
                      d="M149.083,161.648a1.037,1.037,0,0,0-.952,1.105v1.955h1.9v-1.955A1.037,1.037,0,0,0,149.083,161.648Z"
                      transform="translate(-141.423 -128.361)" fill="#b8886d" />
                    <path id="Path_8588" data-name="Path 8588"
                      d="M138.008,164.709v-1.955a1.037,1.037,0,0,0-.952-1.105v3.061Z"
                      transform="translate(-133.068 -128.361)" fill="#b8886d" />
                    <path id="Path_8589" data-name="Path 8589"
                      d="M161.776,238.462a.155.155,0,0,1-.155-.155v-9.066a.155.155,0,0,1,.31,0v9.066A.155.155,0,0,1,161.776,238.462Z"
                      transform="translate(-151.599 -179.232)" fill="#dba281" />
                    <path id="Path_8590" data-name="Path 8590"
                      d="M156.4,238.323a.155.155,0,0,1-.155-.155v-3.062a.155.155,0,0,1,.31,0v3.062A.155.155,0,0,1,156.4,238.323Z"
                      transform="translate(-147.543 -183.656)" fill="#dba281" />
                    <path id="Path_8591" data-name="Path 8591"
                      d="M158.843,88.187a.155.155,0,0,1-.155-.155V80.647a.155.155,0,0,1,.31,0v7.385A.155.155,0,0,1,158.843,88.187Z"
                      transform="translate(-149.386 -67.142)" fill="#dba281" />
                    <path id="Path_8592" data-name="Path 8592"
                      d="M162.754,196.347a.155.155,0,0,1-.155-.155V193.07a.155.155,0,1,1,.31,0v3.122A.155.155,0,0,1,162.754,196.347Z"
                      transform="translate(-152.336 -151.947)" fill="#dba281" />
                    <path id="Path_8593" data-name="Path 8593"
                      d="M146.721,42.15a.155.155,0,0,1-.118-.255c.309-.365.54-.619.54-.619a.155.155,0,1,1,.229.209s-.228.251-.532.61A.155.155,0,0,1,146.721,42.15Z"
                      transform="translate(-140.242 -37.521)" fill="#dba281" />
                    <path id="Path_8594" data-name="Path 8594"
                      d="M140.7,50.175a.155.155,0,0,1-.143-.1,4,4,0,0,1-.292-1.55,4.113,4.113,0,0,1,.965-1.681.155.155,0,1,1,.245.19c-.766.988-.893,1.369-.9,1.509a3.732,3.732,0,0,0,.268,1.412.155.155,0,0,1-.143.215Z"
                      transform="translate(-135.487 -41.718)" fill="#dba281" />
                  </g>
                  <g id="Group_8119" data-name="Group 8119" transform="translate(122.427 14.529)">
                    <path id="Path_8595" data-name="Path 8595"
                      d="M614.215,78.19a.133.133,0,0,0-.133.133v1.651a.133.133,0,1,0,.265,0V78.323A.133.133,0,0,0,614.215,78.19Z"
                      transform="translate(-607.758 -78.19)" fill="#f7e5b8" />
                    <path id="Path_8596" data-name="Path 8596"
                      d="M608.364,88.726a18.989,18.989,0,0,0-2.852-3.936,18.99,18.99,0,0,0-2.852,3.936,3.094,3.094,0,0,0,.73,2.719l2.123.02,2.122-.02A3.093,3.093,0,0,0,608.364,88.726Z"
                      transform="translate(-599.055 -83.169)" fill="#b8886d" />
                    <rect id="Rectangle_17344" data-name="Rectangle 17344" width="4.422" height="10.436"
                      transform="translate(4.245 9.05)" fill="#edd3c3" />
                    <path id="Path_8597" data-name="Path 8597"
                      d="M589.661,158.833s2.285.649,2.285,2.771h7.695c0-2.122,2.285-2.771,2.285-2.771Z"
                      transform="translate(-589.337 -139.022)" fill="#b8886d" />
                    <rect id="Rectangle_17345" data-name="Rectangle 17345" width="6.191" height="29.628"
                      transform="translate(3.361 23.82)" fill="#edd3c3" />
                    <rect id="Rectangle_17346" data-name="Rectangle 17346" width="7.473" height="1.179"
                      transform="translate(2.72 39.445)" fill="#dba281" />
                    <path id="Path_8598" data-name="Path 8598" d="M624.758,192.389a.874.874,0,0,0-.8.932v1.648h.8Z"
                      transform="translate(-615.207 -164.335)" fill="#b8886d" />
                    <rect id="Rectangle_17347" data-name="Rectangle 17347" width="7.694" height="1.327"
                      transform="translate(2.609 22.582)" fill="#dba281" />
                    <rect id="Rectangle_17348" data-name="Rectangle 17348" width="12.912" height="0.649" rx="0.324"
                      transform="translate(0 19.162)" fill="#ffe3d2" />
                    <rect id="Rectangle_17349" data-name="Rectangle 17349" width="4.658" height="0.442"
                      transform="translate(4.149 8.689)" fill="#dba281" />
                    <path id="Path_8599" data-name="Path 8599"
                      d="M607.522,111.181h-5.9a.324.324,0,0,0,0,.649h5.9a.324.324,0,1,0,0-.649Z"
                      transform="translate(-598.118 -103.076)" fill="#ffe3d2" />
                    <path id="Path_8600" data-name="Path 8600"
                      d="M612.158,192.389a.874.874,0,0,0-.8.932v1.648h1.605v-1.648A.874.874,0,0,0,612.158,192.389Z"
                      transform="translate(-605.701 -164.335)" fill="#b8886d" />
                    <path id="Path_8601" data-name="Path 8601" d="M602.824,194.968v-1.648a.874.874,0,0,0-.8-.932v2.579Z"
                      transform="translate(-598.661 -164.335)" fill="#b8886d" />
                    <path id="Path_8602" data-name="Path 8602"
                      d="M622.585,257.138a.116.116,0,0,1-.116-.116v-7.865a.116.116,0,0,1,.233,0v7.865A.116.116,0,0,1,622.585,257.138Z"
                      transform="translate(-614.085 -207.069)" fill="#dba281" />
                    <path id="Path_8603" data-name="Path 8603"
                      d="M622.831,220.117a.116.116,0,0,1-.116-.116v-4.083a.116.116,0,0,1,.233,0V220A.116.116,0,0,1,622.831,220.117Z"
                      transform="translate(-614.271 -181.996)" fill="#dba281" />
                    <path id="Path_8604" data-name="Path 8604"
                      d="M620.142,130.127a.117.117,0,0,1-.117-.116v-6.964a.116.116,0,1,1,.233,0v6.964A.116.116,0,0,1,620.142,130.127Z"
                      transform="translate(-612.242 -111.939)" fill="#dba281" />
                    <path id="Path_8605" data-name="Path 8605"
                      d="M619.9,226.085a.116.116,0,0,1-.116-.116v-1.741a.116.116,0,1,1,.233,0v1.741A.116.116,0,0,1,619.9,226.085Z"
                      transform="translate(-612.057 -188.264)" fill="#dba281" />
                    <path id="Path_8606" data-name="Path 8606"
                      d="M609.1,93.013a.116.116,0,0,1-.093-.186c.215-.287.375-.485.375-.485a.116.116,0,1,1,.181.146s-.158.2-.369.478A.117.117,0,0,1,609.1,93.013Z"
                      transform="translate(-603.911 -88.833)" fill="#dba281" />
                    <path id="Path_8607" data-name="Path 8607"
                      d="M604.958,99.669a.116.116,0,0,1-.1-.056,2.546,2.546,0,0,1-.356-1.478,3.9,3.9,0,0,1,.668-1.31.116.116,0,0,1,.193.13,3.548,3.548,0,0,0-.63,1.214,2.348,2.348,0,0,0,.325,1.323.116.116,0,0,1-.1.177Z"
                      transform="translate(-600.52 -92.208)" fill="#dba281" />
                  </g>
                  <g id="Group_8121" data-name="Group 8121" transform="translate(-2.657 54.815)">
                    <path id="Path_8608" data-name="Path 8608"
                      d="M79.167,242.181s63.621,17.832,144.634,5.5l.22,15.63s-85.636,10.567-144.634.44Z"
                      transform="translate(-79.167 -242.181)" fill="#edd3c3" />
                    <path id="Path_8609" data-name="Path 8609"
                      d="M224.64,324.3c-86.958,9.841-131.964,2.183-144.637-.13l.015,1.432c59,10.127,144.634-.44,144.634-.44Z"
                      transform="translate(-79.798 -304.032)" fill="#b8886d" />
                    <path id="Path_8610" data-name="Path 8610"
                      d="M223.809,248.281l-.008-.6c-81.013,12.328-144.634-5.5-144.634-5.5l.023,2.273C88.884,246.754,156.047,261.586,223.809,248.281Z"
                      transform="translate(-79.167 -242.181)" fill="#dba281" />
                    <g id="Group_8120" data-name="Group 8120" transform="translate(2.657 5.962)">
                      <path id="Path_8611" data-name="Path 8611"
                        d="M92.684,266.452c-2.1.48-2.7,3.062-2.7,3.062v8.166l5.4.762v-8.165S94.785,266.932,92.684,266.452Z"
                        transform="translate(-89.982 -266.452)" fill="#b8886d" />
                      <path id="Path_8612" data-name="Path 8612"
                        d="M133.038,274.523c-2.061.471-2.649,3-2.649,3v8.007l5.306.559-.008-8.187S135.1,274.994,133.038,274.523Z"
                        transform="translate(-120.463 -272.54)" fill="#b8886d" />
                      <path id="Path_8613" data-name="Path 8613"
                        d="M650.511,273.22c-2.06.471-2.649,3-2.649,3v8.007l5.3-.742V275.48A3.707,3.707,0,0,0,650.511,273.22Z"
                        transform="translate(-510.813 -271.557)" fill="#b8886d" />
                      <path id="Path_8614" data-name="Path 8614"
                        d="M172.648,279.412c-2.026.463-2.606,2.953-2.606,2.953v7.875l5.211.689v-7.875S174.674,279.875,172.648,279.412Z"
                        transform="translate(-150.374 -276.228)" fill="#b8886d" />
                      <path id="Path_8615" data-name="Path 8615"
                        d="M609.307,279.412c-2.027.463-2.606,2.953-2.606,2.953v7.875l5.211-.581v-7.875A3.7,3.7,0,0,0,609.307,279.412Z"
                        transform="translate(-479.764 -276.228)" fill="#b8886d" />
                      <path id="Path_8616" data-name="Path 8616"
                        d="M214.435,285.122c-1.965.449-2.526,2.863-2.526,2.863v7.635l5.052.447v-7.635S216.4,285.571,214.435,285.122Z"
                        transform="translate(-181.956 -280.536)" fill="#b8886d" />
                      <path id="Path_8617" data-name="Path 8617"
                        d="M255.1,291.489c-1.822.416-2.343,2.655-2.343,2.655v7.08l4.685.307v-7.08S256.927,291.905,255.1,291.489Z"
                        transform="translate(-212.773 -285.338)" fill="#b8886d" />
                      <path id="Path_8618" data-name="Path 8618"
                        d="M569.891,287.09c-1.822.416-2.343,2.655-2.343,2.655v7.08l4.685-.354v-7.08A3.421,3.421,0,0,0,569.891,287.09Z"
                        transform="translate(-450.229 -282.02)" fill="#b8886d" />
                      <path id="Path_8619" data-name="Path 8619"
                        d="M531.764,290.511c-1.822.417-2.343,2.655-2.343,2.655v7.08l4.685-.354v-7.08A3.42,3.42,0,0,0,531.764,290.511Z"
                        transform="translate(-421.468 -284.601)" fill="#b8886d" />
                      <path id="Path_8620" data-name="Path 8620"
                        d="M290.262,295.659c-1.727.395-2.22,2.516-2.22,2.516v6.709l4.44.212v-6.709S291.989,296.054,290.262,295.659Z"
                        transform="translate(-239.386 -288.484)" fill="#b8886d" />
                      <path id="Path_8621" data-name="Path 8621"
                        d="M495.686,294.939c-1.727.395-2.22,2.516-2.22,2.516v6.709l4.44-.271v-6.709A3.282,3.282,0,0,0,495.686,294.939Z"
                        transform="translate(-394.346 -287.941)" fill="#b8886d" />
                      <path id="Path_8622" data-name="Path 8622"
                        d="M326.64,299.307c-1.634.373-2.1,2.381-2.1,2.381v6.349h4.2v-6.349S328.274,299.68,326.64,299.307Z"
                        transform="translate(-266.918 -291.236)" fill="#b8886d" />
                      <path id="Path_8623" data-name="Path 8623"
                        d="M460.081,299.307c-1.634.373-2.1,2.381-2.1,2.381v6.349l4.2-.308V301.38A3.072,3.072,0,0,0,460.081,299.307Z"
                        transform="translate(-367.577 -291.236)" fill="#b8886d" />
                      <path id="Path_8624" data-name="Path 8624"
                        d="M360.45,301.313c-1.572.359-2.021,2.29-2.021,2.29v6.107h4.041V303.6S362.021,301.672,360.45,301.313Z"
                        transform="translate(-292.482 -292.749)" fill="#b8886d" />
                      <path id="Path_8625" data-name="Path 8625"
                        d="M426.926,301.313c-1.571.359-2.021,2.29-2.021,2.29v6.107l4.041-.168v-6.107A3.042,3.042,0,0,0,426.926,301.313Z"
                        transform="translate(-342.628 -292.749)" fill="#b8886d" />
                      <path id="Path_8626" data-name="Path 8626"
                        d="M393.322,301.99c-1.54.352-1.98,2.245-1.98,2.245v5.986H395.3v-5.986S394.862,302.342,393.322,301.99Z"
                        transform="translate(-317.309 -293.26)" fill="#b8886d" />
                    </g>
                  </g>
                  <g id="Group_8122" data-name="Group 8122" transform="translate(5.379 74.997)">
                    <path id="Path_8627" data-name="Path 8627"
                      d="M548.364,331.162c0,1.175-.367,2.128-.82,2.128s-.821-.952-.821-2.128.367-2.127.821-2.127S548.364,329.987,548.364,331.162Z"
                      transform="translate(-439.898 -327.88)" fill="#fff" />
                    <path id="Path_8628" data-name="Path 8628"
                      d="M570.956,335.421c0,.52-.218.942-.486.942s-.486-.422-.486-.942.218-.942.486-.942S570.956,334.9,570.956,335.421Z"
                      transform="translate(-457.444 -331.987)" fill="#f7e7dc" />
                    <path id="Path_8629" data-name="Path 8629"
                      d="M602.747,329.721c0,.789-.3,1.429-.669,1.429s-.669-.639-.669-1.429.3-1.428.669-1.428S602.747,328.932,602.747,329.721Z"
                      transform="translate(-481.151 -327.319)" fill="#fff" />
                    <path id="Path_8630" data-name="Path 8630"
                      d="M515.955,337.863c0,.789-.3,1.428-.669,1.428s-.669-.639-.669-1.428.3-1.429.669-1.429S515.955,337.073,515.955,337.863Z"
                      transform="translate(-415.68 -333.461)" fill="#fff" />
                    <path id="Path_8631" data-name="Path 8631"
                      d="M623.173,333.663c0,.369-.163.669-.365.669s-.365-.3-.365-.669.163-.669.365-.669S623.173,333.293,623.173,333.663Z"
                      transform="translate(-497.017 -330.866)" fill="#fff" />
                    <path id="Path_8632" data-name="Path 8632"
                      d="M638.875,325.792c0,.806-.3,1.459-.669,1.459s-.669-.653-.669-1.459.3-1.459.669-1.459S638.875,324.986,638.875,325.792Z"
                      transform="translate(-508.404 -324.333)" fill="#f7e7dc" />
                    <path id="Path_8633" data-name="Path 8633"
                      d="M140.638,331.881c0,.79-.32,1.431-.715,1.431s-.716-.641-.716-1.431.32-1.431.716-1.431S140.638,331.091,140.638,331.881Z"
                      transform="translate(-132.493 -328.947)" fill="#f7e7dc" />
                    <path id="Path_8634" data-name="Path 8634"
                      d="M168.536,344.717c0,.456-.246.826-.55.826s-.551-.37-.551-.826.247-.825.551-.825S168.536,344.262,168.536,344.717Z"
                      transform="translate(-153.786 -339.087)" fill="#fff" />
                    <path id="Path_8635" data-name="Path 8635"
                      d="M254.415,340.95c0,.643-.246,1.165-.55,1.165s-.551-.522-.551-1.165.246-1.165.551-1.165S254.415,340.307,254.415,340.95Z"
                      transform="translate(-218.568 -335.989)" fill="#fff" />
                    <path id="Path_8636" data-name="Path 8636"
                      d="M113.857,328.343c0,1.064-.444,1.927-.991,1.927s-.991-.863-.991-1.927.443-1.926.991-1.926S113.857,327.28,113.857,328.343Z"
                      transform="translate(-111.876 -325.905)" fill="#fff" />
                    <path id="Path_8637" data-name="Path 8637"
                      d="M268.455,344.6c0,.638-.246,1.156-.55,1.156s-.55-.517-.55-1.156.246-1.156.55-1.156S268.455,343.961,268.455,344.6Z"
                      transform="translate(-229.159 -338.749)" fill="#f7e7dc" />
                    <ellipse id="Ellipse_19" data-name="Ellipse 19" cx="0.712" cy="1.495" rx="0.712" ry="1.495"
                      transform="translate(40.836 3.612)" fill="#fff" />
                  </g>
                  <g id="Group_8123" data-name="Group 8123" transform="translate(6.227 12.368)">
                    <circle id="Ellipse_20" data-name="Ellipse 20" cx="0.36" cy="0.36" r="0.36"
                      transform="translate(21.374 24.256)" fill="#fff" />
                    <circle id="Ellipse_21" data-name="Ellipse 21" cx="0.6" cy="0.6" r="0.6"
                      transform="translate(27.498 12.728)" fill="#fff" />
                    <circle id="Ellipse_22" data-name="Ellipse 22" cx="0.42" cy="0.42" r="0.42"
                      transform="translate(38.305 39.986)" fill="#fff" />
                    <path id="Path_8638" data-name="Path 8638"
                      d="M124.229,200.44a.54.54,0,1,1-.54-.54A.54.54,0,0,1,124.229,200.44Z"
                      transform="translate(-121.227 -167.839)" fill="#fff" />
                    <path id="Path_8639" data-name="Path 8639"
                      d="M115.928,189.447a.3.3,0,1,1-.3-.3A.3.3,0,0,1,115.928,189.447Z"
                      transform="translate(-115.328 -159.728)" fill="#fff" />
                    <path id="Path_8640" data-name="Path 8640"
                      d="M557.311,230.017a.3.3,0,1,1-.3-.3A.3.3,0,0,1,557.311,230.017Z"
                      transform="translate(-448.281 -190.331)" fill="#fff" />
                    <path id="Path_8641" data-name="Path 8641"
                      d="M533.953,175.324a.841.841,0,1,1-.841-.841A.841.841,0,0,1,533.953,175.324Z"
                      transform="translate(-429.845 -148.666)" fill="#fff" />
                    <path id="Path_8642" data-name="Path 8642"
                      d="M551.446,160.608a.3.3,0,1,1-.3-.3A.3.3,0,0,1,551.446,160.608Z"
                      transform="translate(-443.856 -137.973)" fill="#fff" />
                    <path id="Path_8643" data-name="Path 8643"
                      d="M593.723,118.2a.42.42,0,1,1-.42-.42A.42.42,0,0,1,593.723,118.2Z"
                      transform="translate(-475.566 -105.895)" fill="#fff" />
                    <path id="Path_8644" data-name="Path 8644"
                      d="M644.2,212.36a.24.24,0,1,1-.24-.24A.24.24,0,0,1,644.2,212.36Z"
                      transform="translate(-513.913 -177.057)" fill="#fff" />
                    <circle id="Ellipse_23" data-name="Ellipse 23" cx="0.36" cy="0.36" r="0.36"
                      transform="translate(100.025)" fill="#fff" />
                    <circle id="Ellipse_24" data-name="Ellipse 24" cx="0.36" cy="0.36" r="0.36"
                      transform="translate(105.549 6.604)" fill="#fff" />
                    <circle id="Ellipse_25" data-name="Ellipse 25" cx="0.24" cy="0.24" r="0.24"
                      transform="translate(77.69 25.817)" fill="#fff" />
                    <circle id="Ellipse_26" data-name="Ellipse 26" cx="0.48" cy="0.48" r="0.48"
                      transform="translate(53.315 24.496)" fill="#fff" />
                    <path id="Path_8645" data-name="Path 8645"
                      d="M570.132,258.667a.6.6,0,1,1-.6-.6A.6.6,0,0,1,570.132,258.667Z"
                      transform="translate(-457.499 -211.717)" fill="#fff" />
                    <path id="Path_8646" data-name="Path 8646"
                      d="M579.428,250.118a.36.36,0,1,1-.36-.36A.36.36,0,0,1,579.428,250.118Z"
                      transform="translate(-464.873 -205.449)" fill="#fff" />
                    <path id="Path_8647" data-name="Path 8647"
                      d="M644.927,251.1a.36.36,0,1,1-.36-.36A.36.36,0,0,1,644.927,251.1Z"
                      transform="translate(-514.282 -206.186)" fill="#fff" />
                  </g>
                  <g id="Group_8126" data-name="Group 8126" transform="translate(56.244 39.944)">
                    <path id="Path_8648" data-name="Path 8648"
                      d="M372.354,357.257a34.066,34.066,0,0,1,5.884.581,6.888,6.888,0,0,1,2.408.637c.63.376.677,1.1,1.657,1.031a5.626,5.626,0,0,0,1.186-.329c1.869-.564,3.981.124,5.811.563a59.525,59.525,0,0,0,5.954.727c.782.11,2.654.754,3.421.48-3.111,1.115-6.232,2.2-9.348,3.3-4.445,1.569-10.015,4.753-14.661,3.852a2.125,2.125,0,0,1-.865-.3,6.172,6.172,0,0,1-.516-.513c-1.287-1.19-2.2.136-3.348.492-.885.276-.857.188-1.615-.347-.6-.424-1.488-.88-2.016-1.327-.914-.773-1.157-1.8-2.449-2.2a3.017,3.017,0,0,0-2.658.408c-1.787,1.33-2.165,1.272-4.435.875-1.867-.326-3.714-.752-5.567-1.148-2.724-.581-5.792-.6-8.42-1.436-5.679-1.811-11.784-2.664-17.67-3.711-1.935-.344-4.2-1.118-6.175-1.1Z"
                      transform="translate(-318.931 -314.115)" fill="#d6a589" />
                    <g id="Group_8125" data-name="Group 8125" transform="translate(1.68)">
                      <g id="Group_8124" data-name="Group 8124" transform="translate(0)">
                        <path id="Path_8649" data-name="Path 8649" d="M352.141,181.644v46.81L325.769,225.9V186.751Z"
                          transform="translate(-325.769 -181.644)" fill="#333d5c" />
                        <path id="Path_8650" data-name="Path 8650" d="M433.12,181.644v46.81l26.372-2.557V186.751Z"
                          transform="translate(-406.748 -181.644)" fill="#232a40" />
                      </g>
                      <path id="Path_8651" data-name="Path 8651" d="M325.769,221.827l26.372-1.85v-6.635l-26.372,3.232Z"
                        transform="translate(-325.769 -205.556)" fill="#ffc875" />
                      <path id="Path_8652" data-name="Path 8652" d="M325.847,212.848v.2L352.2,209.6v-.2Z"
                        transform="translate(-325.828 -202.579)" fill="#ffc875" />
                      <path id="Path_8653" data-name="Path 8653" d="M352.141,243.277,325.769,244.9v.2l26.372-1.625Z"
                        transform="translate(-325.769 -228.136)" fill="#ffc875" />
                      <path id="Path_8654" data-name="Path 8654"
                        d="M335.866,253.346l0,1.741,2.891-.054,0-1.829Zm3.3-.161,0,1.841,2.891-.054,0-1.928Zm-6.591.322,0,1.642,2.891-.054,0-1.729Zm-3.3.161,0,1.542,2.891-.054,0-1.63Zm13.181-.643,0,1.941,2.891-.054-.005-2.028Zm-16.669.813-.019,1.437,3.106-.058,0-1.53Zm23.259-1.135.006,2.14,3.088-.057v-2.233Zm-3.3.161.005,2.04,2.891-.054-.006-2.128Z"
                        transform="translate(-325.769 -235.133)" fill="#ffc875" />
                      <path id="Path_8655" data-name="Path 8655" d="M459.492,221.827l-26.372-1.85v-6.635l26.372,3.232Z"
                        transform="translate(-406.748 -205.556)" fill="#ffa767" />
                      <path id="Path_8656" data-name="Path 8656" d="M459.473,212.848v.2L433.12,209.6v-.2Z"
                        transform="translate(-406.748 -202.579)" fill="#ffa767" />
                      <path id="Path_8657" data-name="Path 8657" d="M433.12,243.277l26.372,1.625v.2l-26.372-1.625Z"
                        transform="translate(-406.748 -228.136)" fill="#ffa767" />
                      <path id="Path_8658" data-name="Path 8658"
                        d="M446.5,253.2l0,1.829,2.891.054,0-1.741Zm-3.3-.161,0,1.928,2.891.054,0-1.841Zm6.591.322,0,1.729,2.891.054,0-1.642Zm3.3.161,0,1.63,2.891.054,0-1.542Zm-13.181-.643-.005,2.028,2.891.054,0-1.941Zm16.477.8,0,1.53,3.106.058-.019-1.437Zm-23.27-1.135v2.233l3.088.057.006-2.14Zm3.5.17-.006,2.128,2.891.054.005-2.04Z"
                        transform="translate(-406.748 -235.133)" fill="#ffa767" />
                    </g>
                  </g>
                </g>
              </g>
              <g id="Group_8138" data-name="Group 8138" transform="translate(127.252 59.142)">
                <ellipse id="Ellipse_27" data-name="Ellipse 27" cx="15.635" cy="2.124" rx="15.635" ry="2.124"
                  transform="translate(0 66.734)" fill="#edc2a8" />
                <g id="Group_8137" data-name="Group 8137" transform="translate(4.95)">
                  <path id="Path_8660" data-name="Path 8660"
                    d="M280.087,229.071a37.347,37.347,0,0,0-5.576.672c-1.1.41-2.192.74-2.574,1.493s.007,11.133.048,11.25,5.782-2.721,5.782-2.721l3.057-8.739Z"
                    transform="translate(-269.331 -217.573)" fill="#bd8164" />
                  <g id="Group_8131" data-name="Group 8131" transform="translate(2.679 62.994)">
                    <g id="Group_8129" data-name="Group 8129" transform="translate(8.945 0)">
                      <path id="Path_8661" data-name="Path 8661"
                        d="M318.39,444.693a3.687,3.687,0,0,1-.64.029,6.8,6.8,0,0,0-1.02.22c-.81.13-1.6-.339-2.417-.374-.618-.027-1.235.126-1.853.111a9.62,9.62,0,0,1-1.147-.13c-.417-.061-.834-.13-1.246-.217-.156-.033-.535-.055-.648-.189a3.011,3.011,0,0,1-.249-.975.335.335,0,0,1,0-.113,5.382,5.382,0,0,1,.252-.918,26.771,26.771,0,0,0,.372-2.691l.82-.4,2.269-.356a7.132,7.132,0,0,0,.159.854c.048.164.185.561.343.958a4.56,4.56,0,0,0,.453.917,5.46,5.46,0,0,0,1.7,1.036,12.75,12.75,0,0,0,1.876.465,5.682,5.682,0,0,0,.722.239.989.989,0,0,1,.748.331A.813.813,0,0,1,318.39,444.693Z"
                        transform="translate(-309.163 -438.692)" fill="#bd8164" />
                      <path id="Path_8662" data-name="Path 8662"
                        d="M314.545,455.84a.056.056,0,0,1-.033-.011,1.092,1.092,0,0,1-.4-.7.053.053,0,0,1,.047-.059.052.052,0,0,1,.059.047,1,1,0,0,0,.362.626.053.053,0,0,1-.031.1Z"
                        transform="translate(-312.893 -451.046)" fill="#824c33" />
                      <path id="Path_8663" data-name="Path 8663"
                        d="M313.382,440.5a16.9,16.9,0,0,0-2.05.756,17.007,17.007,0,0,0-2.164,1.907.335.335,0,0,1,0-.113,5.382,5.382,0,0,1,.252-.918,26.771,26.771,0,0,0,.372-2.691l.82-.4,2.269-.356a7.132,7.132,0,0,0,.159.854C313.087,439.71,313.224,440.107,313.382,440.5Z"
                        transform="translate(-309.163 -438.692)" fill="#824c33" />
                    </g>
                    <g id="Group_8130" data-name="Group 8130" transform="translate(0 0.572)">
                      <path id="Path_8664" data-name="Path 8664"
                        d="M281.54,446.544a.924.924,0,0,1-.145.082,4.98,4.98,0,0,1-.841.157,5.618,5.618,0,0,1-.838.226,5.372,5.372,0,0,1-1.585-.29,5.922,5.922,0,0,0-1.636-.181,14.712,14.712,0,0,1-1.725.087c-.484-.028-1.539-.058-1.766-.559a5.316,5.316,0,0,1-.236-1.439,5.027,5.027,0,0,1,.185-1.539c.04-.2.1-.517.152-.841.1-.572.2-1.171.2-1.229l3.015.19a1.816,1.816,0,0,1,.423.762,5.951,5.951,0,0,0,.777,1.672c.025.039.05.075.075.115a3.5,3.5,0,0,0,1.9,1.187,7.952,7.952,0,0,0,1.308.16,1.192,1.192,0,0,1,.912.412.926.926,0,0,1,.125.377A.66.66,0,0,1,281.54,446.544Z"
                        transform="translate(-272.751 -441.019)" fill="#bd8164" />
                      <path id="Path_8665" data-name="Path 8665"
                        d="M277.856,453.309h-.006a.053.053,0,0,1-.048-.058,1.836,1.836,0,0,1,.042-.266.053.053,0,1,1,.1.027,1.816,1.816,0,0,0-.039.249A.053.053,0,0,1,277.856,453.309Z"
                        transform="translate(-276.561 -450.015)" fill="#824c33" />
                      <path id="Path_8666" data-name="Path 8666"
                        d="M278.087,456.082a.053.053,0,0,1-.041-.018,1.071,1.071,0,0,1-.25-.637.053.053,0,1,1,.106-.01.968.968,0,0,0,.223.575.053.053,0,0,1-.039.089Z"
                        transform="translate(-276.557 -451.844)" fill="#824c33" />
                      <path id="Path_8667" data-name="Path 8667"
                        d="M277.825,441.971a5.954,5.954,0,0,0,.778,1.672,28.878,28.878,0,0,1-4.414-1.4c.1-.572.2-1.171.2-1.229l3.015.19A1.816,1.816,0,0,1,277.825,441.971Z"
                        transform="translate(-273.836 -441.019)" fill="#824c33" />
                    </g>
                  </g>
                  <g id="Group_8132" data-name="Group 8132" transform="translate(0 11.399)">
                    <path id="Path_8668" data-name="Path 8668"
                      d="M321.044,240.253s1.319,3.433,1.881,5.49,2.077,10.768,2.3,12.033a14.062,14.062,0,0,1,.212,2.357,8.918,8.918,0,0,1-1.658,1.647c-.44.154-1.113-3.465-1.113-3.465l-1.259-15.382Z"
                      transform="translate(-306.501 -237.406)" fill="#edd3c3" />
                    <path id="Path_8669" data-name="Path 8669"
                      d="M264.136,259.14a10.559,10.559,0,0,0-.521,4.669,15.262,15.262,0,0,1,.6,4.889c-.157,1.359-2.372,15.2-2.372,15.2a13.272,13.272,0,0,0,9.767,2.1,85.712,85.712,0,0,0,10.526-2.457s-1.46-11.013-1.69-14.609-1.441-13.728-1.309-16.739-2.044-14.6-2.419-15.955a2.915,2.915,0,0,0-1.8-2.039c-.594-.286-5.635,10-5.635,10Z"
                      transform="translate(-261.845 -232.834)" fill="#fff" />
                    <path id="Path_8670" data-name="Path 8670"
                      d="M266.889,249.149a31.223,31.223,0,0,0-1.092,3.97c-.215,1.419.89,4.295,1.542,4.521s5.293-1.2,7.124-5.062,6.114-17.556,3.29-21l-4.479,8.386Z"
                      transform="translate(-264.806 -230.865)" fill="#fff" />
                    <path id="Path_8671" data-name="Path 8671"
                      d="M275.94,228.765s.676-.216.8-.012.026-.207.3.232c0,0,.851-.337,1.092.014s-1.236,6.243-2.468,8.71-3.533,8.549-8.391,9.24a5.6,5.6,0,0,1-.986-2.818,4.679,4.679,0,0,1,1-2.168s4.487-3.813,6.417-7A16.542,16.542,0,0,0,275.94,228.765Z"
                      transform="translate(-265.184 -228.665)" fill="#fff" />
                    <path id="Path_8672" data-name="Path 8672"
                      d="M271.908,261.85h-.019a.076.076,0,0,1,0-.152h.005c.113,0,2.831-.1,5.606-4.571a36.274,36.274,0,0,0,3.86-8.64.076.076,0,0,1,.146.043,36.443,36.443,0,0,1-3.876,8.678C274.849,261.69,272.178,261.846,271.908,261.85Z"
                      transform="translate(-269.365 -243.575)" fill="#edd3c3" />
                    <path id="Path_8673" data-name="Path 8673"
                      d="M312.353,237.831l-.018,0a.076.076,0,0,1-.057-.091c.129-.557.227-1.077.283-1.5a.076.076,0,0,1,.151.02c-.056.432-.155.957-.285,1.518A.077.077,0,0,1,312.353,237.831Z"
                      transform="translate(-299.887 -234.324)" fill="#edd3c3" />
                    <path id="Path_8674" data-name="Path 8674"
                      d="M279.359,286.664a.077.077,0,0,1-.067-.037.076.076,0,0,1,.026-.1,10.3,10.3,0,0,0,3.057-3,.077.077,0,0,1,.1-.026.076.076,0,0,1,.025.1,10.465,10.465,0,0,1-3.109,3.051A.075.075,0,0,1,279.359,286.664Z"
                      transform="translate(-274.998 -270.019)" fill="#edd3c3" />
                    <path id="Path_8675" data-name="Path 8675"
                      d="M273.6,321.128a.076.076,0,0,1-.011-.152,9.524,9.524,0,0,0,6.844-5.24.076.076,0,1,1,.138.065,9.679,9.679,0,0,1-6.962,5.326Z"
                      transform="translate(-270.657 -294.313)" fill="#edd3c3" />
                    <path id="Path_8676" data-name="Path 8676"
                      d="M304.7,265.531a.076.076,0,0,1-.072-.1,48.177,48.177,0,0,0,3.256-13.963.076.076,0,1,1,.152.01,48.336,48.336,0,0,1-3.266,14.008A.076.076,0,0,1,304.7,265.531Z"
                      transform="translate(-294.117 -245.809)" fill="#edd3c3" />
                    <path id="Path_8677" data-name="Path 8677"
                      d="M305.374,289.779a.068.068,0,0,1-.024,0,.076.076,0,0,1-.05-.1c.009-.027.848-2.707,1.1-3.642a.075.075,0,0,1,.093-.054.076.076,0,0,1,.054.093c-.249.939-1.089,3.622-1.1,3.649A.076.076,0,0,1,305.374,289.779Z"
                      transform="translate(-294.622 -271.901)" fill="#edd3c3" />
                    <path id="Path_8678" data-name="Path 8678"
                      d="M327.32,377.148a.076.076,0,0,1-.076-.065c-.143-.95-.229-1.552-.229-1.552a.076.076,0,0,1,.065-.086.079.079,0,0,1,.086.065s.086.6.228,1.55a.076.076,0,0,1-.064.087Z"
                      transform="translate(-311.004 -339.387)" fill="#edd3c3" />
                    <path id="Path_8679" data-name="Path 8679"
                      d="M330.771,397.628a.076.076,0,0,1-.074-.054c-.549-1.759-1.321-6.381-1.872-9.948a.076.076,0,0,1,.064-.087.078.078,0,0,1,.087.064c.451,2.916,1.293,8.083,1.867,9.926a.076.076,0,0,1-.05.1A.074.074,0,0,1,330.771,397.628Z"
                      transform="translate(-312.37 -348.51)" fill="#edd3c3" />
                    <path id="Path_8680" data-name="Path 8680"
                      d="M299.959,412.561a.075.075,0,0,1-.022,0,.076.076,0,0,1-.052-.094,67.048,67.048,0,0,0,1.737-7.367c.011-.15.04-.323.167-.337h.007c.478-.007,1.8,4.319,2.343,6.187a.076.076,0,1,1-.146.043c-.832-2.842-1.871-5.906-2.182-6.073a.532.532,0,0,0-.037.191,67.057,67.057,0,0,1-1.743,7.4A.076.076,0,0,1,299.959,412.561Z"
                      transform="translate(-290.538 -361.5)" fill="#edd3c3" />
                  </g>
                  <g id="Group_8133" data-name="Group 8133" transform="translate(0.63 13.391)">
                    <path id="Path_8681" data-name="Path 8681"
                      d="M266.384,237.049s-1.986,12.067-1.975,12.814a8.2,8.2,0,0,0,.348,2.277c.205.587,2.775,9.439,2.9,9.752s0,2.557.126,3.224a6.035,6.035,0,0,0,.459,1.8,2.516,2.516,0,0,0,1.659.487c.43-.164,1.174-.411,1.171-.647a18.838,18.838,0,0,0-.386-2.158,7.6,7.6,0,0,1-.175-1.217,6.4,6.4,0,0,1,.64.7c.081.156.046.471.246.665a1.536,1.536,0,0,0,.673.266,3.129,3.129,0,0,0-.1-1.139c-.163-.352-1.568-2.3-1.69-2.532s-1.233-6.237-1.406-7.335a32.948,32.948,0,0,0-.774-4.434s2.461-6.527,2.628-8.536S269.71,235.82,266.384,237.049Z"
                      transform="translate(-264.41 -236.777)" fill="#bd8164" />
                    <path id="Path_8682" data-name="Path 8682"
                      d="M287.1,355.638a.076.076,0,0,1-.073-.05,12.042,12.042,0,0,1-.442-1.718.076.076,0,0,1,.15-.026,11.864,11.864,0,0,0,.434,1.691.076.076,0,0,1-.045.1A.084.084,0,0,1,287.1,355.638Z"
                      transform="translate(-281.135 -325.037)" fill="#824c33" />
                    <path id="Path_8683" data-name="Path 8683"
                      d="M284.378,356.877a.076.076,0,0,1-.075-.057l-.167-.667a.076.076,0,0,1,.148-.037l.167.667a.076.076,0,0,1-.055.092Z"
                      transform="translate(-279.288 -326.755)" fill="#824c33" />
                    <path id="Path_8684" data-name="Path 8684"
                      d="M276.473,286.8a.075.075,0,0,1-.059-.027,1.528,1.528,0,0,0-.47-.346.076.076,0,0,1,.062-.139,1.65,1.65,0,0,1,.523.386.076.076,0,0,1-.008.107A.077.077,0,0,1,276.473,286.8Z"
                      transform="translate(-273.076 -274.12)" fill="#824c33" />
                    <path id="Path_8685" data-name="Path 8685"
                      d="M287.5,248.457a.075.075,0,0,1-.023,0,.076.076,0,0,1-.051-.1,17.533,17.533,0,0,0,.625-2.725,4.977,4.977,0,0,0-.553-2.479.076.076,0,0,1,.122-.091,5.067,5.067,0,0,1,.583,2.579,17.234,17.234,0,0,1-.632,2.761A.076.076,0,0,1,287.5,248.457Z"
                      transform="translate(-281.773 -241.496)" fill="#824c33" />
                    <path id="Path_8686" data-name="Path 8686"
                      d="M287.809,259.744a.076.076,0,0,1-.067-.114l.709-1.23a.076.076,0,0,1,.132.076l-.71,1.23A.076.076,0,0,1,287.809,259.744Z"
                      transform="translate(-282.002 -253.059)" fill="#824c33" />
                  </g>
                  <g id="Group_8134" data-name="Group 8134" transform="translate(6.339 8.084)">
                    <path id="Path_8687" data-name="Path 8687"
                      d="M287.647,219.181a16.839,16.839,0,0,0,.656-2.213c.032-.472.191-1.734.191-1.734a4.715,4.715,0,0,1,1.771.053,5.4,5.4,0,0,1,1.2,1.123l.372,1.234.1,1.277s-2,.6-2.586.707A3.9,3.9,0,0,1,287.647,219.181Z"
                      transform="translate(-287.647 -215.17)" fill="#bd8164" />
                    <path id="Path_8688" data-name="Path 8688"
                      d="M297.782,221.72l-.1-.344c-.735-.283-2.146-.8-2.146-.8a12.334,12.334,0,0,0,1.1,1.533,1.822,1.822,0,0,0,1.2.258Z"
                      transform="translate(-293.596 -219.246)" fill="#824c33" />
                  </g>
                  <g id="Group_8136" data-name="Group 8136" transform="translate(4.832)">
                    <path id="Path_8689" data-name="Path 8689"
                      d="M313.567,193.6s.11-.513.184-.849.067-.827-.091-.864a1.146,1.146,0,0,0-.784.169.622.622,0,0,0,.03.708c.141.234.562.759.562.759Z"
                      transform="translate(-305.098 -189.513)" fill="#0d0f17" />
                    <path id="Path_8690" data-name="Path 8690"
                      d="M287.14,194.65a8.58,8.58,0,0,0,.744,1.11,18.191,18.191,0,0,0,2.349,1.932,6.4,6.4,0,0,0,1.731-.006,8.213,8.213,0,0,0,1.6-2.423,5.611,5.611,0,0,0-.1-1.513,9.277,9.277,0,0,1,.149-1.93,3.005,3.005,0,0,0-.2-1.885,4.472,4.472,0,0,0-3.031-1.45c-.923.132-3.42,1.526-3.724,2.258A4.058,4.058,0,0,0,287.14,194.65Z"
                      transform="translate(-285.168 -186.949)" fill="#bd8164" />
                    <path id="Path_8691" data-name="Path 8691"
                      d="M284.629,187.275s.047.55.09.766.164.45.223.429.294-1.4.369-1.658a14.124,14.124,0,0,1,.766-1.388s1.066.279,1.261.139.075-.257.075-.257a7.139,7.139,0,0,0,1.965-.108c.784-.208,1.733-1.166,1.653-1.283s-.336-.113-.553-.169-1.526-.764-2.456-1.144a3.462,3.462,0,0,0-2.892-.036,6.189,6.189,0,0,0-1.458,1.123,2.669,2.669,0,0,0-1.562.79,5.069,5.069,0,0,0-.482,3.351,5.979,5.979,0,0,0,1.288,1.987c.34.369.917.813.955.733s-.024-.314-.026-.432-.065-.392-.068-.609.444-.6.444-.6a1.448,1.448,0,0,1-.641-.758c-.145-.49-.194-1.177.238-1.223S284.442,186.648,284.629,187.275Z"
                      transform="translate(-281.516 -182.265)" fill="#232a40" />
                    <path id="Path_8692" data-name="Path 8692"
                      d="M307.306,218.615a1.233,1.233,0,0,1-.793-.212.053.053,0,0,1,.069-.082,1.285,1.285,0,0,0,.955.17.051.051,0,0,1,.06.046.053.053,0,0,1-.046.06A2.074,2.074,0,0,1,307.306,218.615Z"
                      transform="translate(-300.358 -209.454)" fill="#824c33" />
                    <path id="Path_8693" data-name="Path 8693"
                      d="M309.279,213.1a1.586,1.586,0,0,1,.431-.095c.059.029.061.117.061.117Z"
                      transform="translate(-302.459 -205.45)" fill="#824c33" />
                    <path id="Path_8694" data-name="Path 8694"
                      d="M311.873,205.988c0,.2-.05.355-.118.356s-.125-.157-.128-.352.05-.355.118-.356S311.87,205.793,311.873,205.988Z"
                      transform="translate(-304.23 -199.895)" fill="#232a40" />
                    <path id="Path_8695" data-name="Path 8695"
                      d="M306.354,205.657c0,.212-.06.384-.142.386s-.15-.17-.153-.381.06-.384.142-.386S306.351,205.445,306.354,205.657Z"
                      transform="translate(-300.029 -199.623)" fill="#232a40" />
                    <path id="Path_8696" data-name="Path 8696"
                      d="M302.811,200.677a.053.053,0,0,1-.023-.1,1.611,1.611,0,0,1,1.276-.026.053.053,0,1,1-.05.094,1.532,1.532,0,0,0-1.182.03A.056.056,0,0,1,302.811,200.677Z"
                      transform="translate(-297.539 -195.961)" fill="#232a40" />
                    <path id="Path_8697" data-name="Path 8697"
                      d="M311.338,200.828a.053.053,0,0,1-.02-.1,1.182,1.182,0,0,1,.707-.049.053.053,0,0,1-.04.1,1.1,1.1,0,0,0-.629.05A.049.049,0,0,1,311.338,200.828Z"
                      transform="translate(-303.971 -196.123)" fill="#232a40" />
                    <g id="Group_8135" data-name="Group 8135" transform="translate(0.484 0.633)">
                      <path id="Path_8698" data-name="Path 8698"
                        d="M305.124,190.8a5.075,5.075,0,0,1-.683-.031.053.053,0,1,1,.015-.106,5,5,0,0,0,3.1-.642.053.053,0,0,1,.06.088A4.6,4.6,0,0,1,305.124,190.8Z"
                        transform="translate(-299.259 -188.739)" fill="#333d5c" />
                      <path id="Path_8699" data-name="Path 8699"
                        d="M308.089,190.728a2.11,2.11,0,0,1-.245-.008.053.053,0,1,1,.011-.106,2.906,2.906,0,0,0,1.212-.177.054.054,0,0,1,.069.03.053.053,0,0,1-.03.069A2.97,2.97,0,0,1,308.089,190.728Z"
                        transform="translate(-301.824 -189.06)" fill="#333d5c" />
                      <path id="Path_8700" data-name="Path 8700"
                        d="M284.07,198.258a.053.053,0,0,1-.043-.021,3.11,3.11,0,0,1-.512-1.032,8.738,8.738,0,0,1,.162-2.044.053.053,0,0,1,.105.019,8.9,8.9,0,0,0-.163,2,3.05,3.05,0,0,0,.492.99.053.053,0,0,1-.01.075A.052.052,0,0,1,284.07,198.258Z"
                        transform="translate(-283.488 -192.593)" fill="#333d5c" />
                      <path id="Path_8701" data-name="Path 8701"
                        d="M285.3,200.81a.053.053,0,0,1-.049-.031,2.259,2.259,0,0,1-.059-.83.054.054,0,0,1,.064-.04.053.053,0,0,1,.04.064,2.193,2.193,0,0,0,.053.762.053.053,0,0,1-.027.071A.051.051,0,0,1,285.3,200.81Z"
                        transform="translate(-284.762 -196.207)" fill="#333d5c" />
                      <path id="Path_8702" data-name="Path 8702"
                        d="M301.851,185.238h-.012l-1.42-.289a4.9,4.9,0,0,0-1.4.211.053.053,0,0,1-.033-.1,4.734,4.734,0,0,1,1.446-.215l1.43.29a.053.053,0,0,1-.01.106Z"
                        transform="translate(-295.151 -184.841)" fill="#333d5c" />
                    </g>
                  </g>
                </g>
              </g>
              <g id="Group_8145" data-name="Group 8145" transform="translate(106.719 61.032)">
                <ellipse id="Ellipse_28" data-name="Ellipse 28" cx="12.036" cy="1.927" rx="12.036" ry="1.927"
                  transform="translate(0 65.237)" fill="#edc2a8" />
                <g id="Group_8144" data-name="Group 8144" transform="translate(2.252 0)">
                  <g id="Group_8139" data-name="Group 8139" transform="translate(2.17 63.045)">
                    <path id="Path_8703" data-name="Path 8703"
                      d="M183.73,451.1c-.207.3-2.92-.146-4.131-.235a12.077,12.077,0,0,1-3.393-.738,3.219,3.219,0,0,1-.067-1.21c.012-.11.156-.841.213-1.22,0-.006,0-.012,0-.018a7.694,7.694,0,0,0,.088-1.091l3.155.588a7.368,7.368,0,0,0,.512,1.308,7.154,7.154,0,0,0,1.792.719,15.528,15.528,0,0,1,1.68.6A1.207,1.207,0,0,1,183.73,451.1Z"
                      transform="translate(-176.117 -446.593)" fill="#da9b7c" />
                    <path id="Path_8704" data-name="Path 8704"
                      d="M182.629,449.208a19.6,19.6,0,0,1-5.551-1.506c0-.006,0-.012,0-.018a7.7,7.7,0,0,0,.088-1.091l3.155.588a7.368,7.368,0,0,0,.512,1.308A7.155,7.155,0,0,0,182.629,449.208Z"
                      transform="translate(-176.842 -446.593)" fill="#b37657" />
                    <path id="Path_8705" data-name="Path 8705"
                      d="M179.986,453.349a.053.053,0,0,1-.048-.031,2.619,2.619,0,0,1-.151-.453,1.844,1.844,0,0,1,.18-.816.054.054,0,0,1,.071-.027.053.053,0,0,1,.027.07,1.705,1.705,0,0,0-.174.748,2.565,2.565,0,0,0,.144.432.054.054,0,0,1-.026.071A.056.056,0,0,1,179.986,453.349Z"
                      transform="translate(-178.877 -450.686)" fill="#b37657" />
                  </g>
                  <g id="Group_8140" data-name="Group 8140" transform="translate(10.985 63.472)">
                    <path id="Path_8706" data-name="Path 8706"
                      d="M219.77,452.086c-.174.314-2.92.149-4.131.183a12.019,12.019,0,0,1-3.451-.393A3.027,3.027,0,0,1,212,450.75a.534.534,0,0,1,0-.07c0-.116.07-.878.091-1.256a7.376,7.376,0,0,0-.021-1.094l3.2.268a7.449,7.449,0,0,0,.64,1.25,4.519,4.519,0,0,0,1.323.421c.945.216,2.076.436,2.262.539A1.215,1.215,0,0,1,219.77,452.086Z"
                      transform="translate(-211.997 -448.33)" fill="#da9b7c" />
                    <path id="Path_8707" data-name="Path 8707"
                      d="M217.231,450.269a18.716,18.716,0,0,1-5.231.482.534.534,0,0,1,0-.07c0-.116.07-.878.091-1.256a7.376,7.376,0,0,0-.021-1.094l3.2.268a7.449,7.449,0,0,0,.64,1.25A4.519,4.519,0,0,0,217.231,450.269Z"
                      transform="translate(-211.997 -448.33)" fill="#b37657" />
                    <path id="Path_8708" data-name="Path 8708"
                      d="M216.818,456.958a.055.055,0,0,1-.031-.01c-.379-.268-.248-.843-.242-.867a.052.052,0,0,1,.064-.04.053.053,0,0,1,.04.064c0,.005-.12.529.2.756a.053.053,0,0,1-.031.1Z"
                      transform="translate(-215.408 -454.146)" fill="#b37657" />
                  </g>
                  <g id="Group_8141" data-name="Group 8141" transform="translate(0 33.432)">
                    <path id="Path_8709" data-name="Path 8709"
                      d="M168.884,327.014s-.551,9.912-.551,11.721-1.259,15.419-1.023,15.97,6.136,2.045,8.889,2.2a86.548,86.548,0,0,0,9.047-.315,6.274,6.274,0,0,0,1.337-.315s.157-7.631-.393-13.374-1.259-13.924-1.18-15.97S168.884,327.014,168.884,327.014Z"
                      transform="translate(-167.281 -326.047)" fill="#fff" />
                    <path id="Path_8710" data-name="Path 8710"
                      d="M189.739,326.935c.079-2.045-16.127.079-16.127.079s-.025.443-.063,1.155c1,.486,4.131,2,5.413,2.444,1.534.531,4.307,1.239,4.956,1.062s1.652-1.3,3.068-2.006a8.124,8.124,0,0,1,2.8-.671C189.741,328.088,189.722,327.371,189.739,326.935Z"
                      transform="translate(-172.009 -326.046)" fill="#edd3c3" />
                    <path id="Path_8711" data-name="Path 8711"
                      d="M196.789,439.846h-.012a.076.076,0,0,1-.064-.087s.111-.718.277-1.87a.076.076,0,0,1,.086-.064.077.077,0,0,1,.065.086c-.167,1.153-.278,1.871-.278,1.871A.076.076,0,0,1,196.789,439.846Z"
                      transform="translate(-189.482 -410.364)" fill="#edd3c3" />
                    <path id="Path_8712" data-name="Path 8712"
                      d="M198.832,397.394h-.011a.076.076,0,0,1-.065-.086c.461-3.293,1.055-7.894,1.267-11.122a.073.073,0,0,1,.081-.071.076.076,0,0,1,.071.081c-.213,3.232-.808,7.838-1.269,11.133A.076.076,0,0,1,198.832,397.394Z"
                      transform="translate(-191.024 -371.358)" fill="#edd3c3" />
                    <path id="Path_8713" data-name="Path 8713"
                      d="M216.39,390.56a.076.076,0,0,1-.075-.065c0-.029-.435-2.92-.707-4.045a.076.076,0,1,1,.148-.036c.273,1.131.705,4.029.709,4.058a.076.076,0,0,1-.064.087Z"
                      transform="translate(-203.735 -371.541)" fill="#edd3c3" />
                    <path id="Path_8714" data-name="Path 8714"
                      d="M180.618,404.481h-.008a.076.076,0,0,1-.068-.084c0-.007.073-.69.148-1.6a.077.077,0,0,1,.082-.07.076.076,0,0,1,.069.082c-.075.913-.148,1.6-.148,1.605A.076.076,0,0,1,180.618,404.481Z"
                      transform="translate(-177.284 -383.888)" fill="#edd3c3" />
                    <path id="Path_8715" data-name="Path 8715"
                      d="M179.584,379.337h0a.076.076,0,0,1-.073-.079,14.381,14.381,0,0,0-.02-2.146,7.762,7.762,0,0,0-.7-2.491.076.076,0,1,1,.134-.073,7.762,7.762,0,0,1,.716,2.544,14.535,14.535,0,0,1,.021,2.172A.076.076,0,0,1,179.584,379.337Z"
                      transform="translate(-175.955 -362.603)" fill="#edd3c3" />
                  </g>
                  <g id="Group_8142" data-name="Group 8142" transform="translate(0.337)">
                    <path id="Path_8716" data-name="Path 8716"
                      d="M173.969,197.865s-2.6,5.9-3.363,7.965a68.425,68.425,0,0,0-1.947,11.859,6.489,6.489,0,0,0,.472,1.77,10.378,10.378,0,0,0-.354,3.068c.177,1,.59,2.242,1.062,2.478s5.015,2.6,7.67,2.478,4.543-1.416,6.2-1.888,3.953-1.062,3.953-1.062-.3-4.484-.354-6.667a52.723,52.723,0,0,0-1.416-8.614,15.5,15.5,0,0,0-.118-3.127,19.164,19.164,0,0,1-.354-2.891,8.05,8.05,0,0,0-.767-2.065,9.156,9.156,0,0,0-.236-1.475c-.177-.649-.59-.59-.649-1.711s-.531-3.54-.59-4.366.3-3.127-3.186-3.6S173.91,191.788,173.969,197.865Z"
                      transform="translate(-168.651 -189.957)" fill="#fff" />
                    <path id="Path_8717" data-name="Path 8717"
                      d="M180.362,315.724h-.009c-5.521-.631-8.093-3.345-8.118-3.372a.076.076,0,1,1,.112-.1c.025.027,2.563,2.7,8.024,3.324a.076.076,0,0,1-.009.152Z"
                      transform="translate(-171.34 -282.188)" fill="#edd3c3" />
                    <path id="Path_8718" data-name="Path 8718"
                      d="M190.3,267.438l-.019,0a16.718,16.718,0,0,1-4.47-1.7c-1.264-.9-2.765-3.918-3.053-4.513-.585-1.209-1.722-4.264-1.734-4.294a.076.076,0,0,1,.143-.053c.011.03,1.146,3.079,1.728,4.281.285.59,1.77,3.574,3,4.455a16.591,16.591,0,0,0,4.42,1.68.076.076,0,0,1-.019.15Z"
                      transform="translate(-177.982 -240.396)" fill="#edd3c3" />
                    <path id="Path_8719" data-name="Path 8719"
                      d="M194.48,280.869a.076.076,0,0,1-.056-.024,15.794,15.794,0,0,1-1.546-2.456.076.076,0,1,1,.135-.07,16.074,16.074,0,0,0,1.522,2.422.076.076,0,0,1-.056.128Z"
                      transform="translate(-186.92 -256.581)" fill="#edd3c3" />
                    <path id="Path_8720" data-name="Path 8720"
                      d="M226.25,294.243a.076.076,0,0,1-.048-.135,8.9,8.9,0,0,0,.816-.788.076.076,0,0,1,.113.1,9.112,9.112,0,0,1-.832.8A.075.075,0,0,1,226.25,294.243Z"
                      transform="translate(-212.043 -267.909)" fill="#edd3c3" />
                    <path id="Path_8721" data-name="Path 8721"
                      d="M233.232,276.43a.076.076,0,0,1-.067-.112,2.973,2.973,0,0,0,.207-.488c.388-1.241.859-3.394.863-3.416a.078.078,0,0,1,.091-.058.076.076,0,0,1,.058.091c0,.021-.477,2.181-.867,3.428a3.108,3.108,0,0,1-.217.514A.077.077,0,0,1,233.232,276.43Z"
                      transform="translate(-217.31 -252.113)" fill="#edd3c3" />
                    <path id="Path_8722" data-name="Path 8722"
                      d="M192.733,230.138a.076.076,0,0,1-.069-.044,14.032,14.032,0,0,1-1.157-6.144.079.079,0,0,1,.082-.07.076.076,0,0,1,.07.082,13.872,13.872,0,0,0,1.144,6.069.076.076,0,0,1-.07.108Z"
                      transform="translate(-185.881 -215.546)" fill="#edd3c3" />
                    <path id="Path_8723" data-name="Path 8723"
                      d="M201.363,247.622a.077.077,0,0,1-.031-.007,8.421,8.421,0,0,1-4.5-5.512.076.076,0,0,1,.149-.031,8.261,8.261,0,0,0,4.411,5.4.076.076,0,0,1-.031.146Z"
                      transform="translate(-189.909 -229.224)" fill="#edd3c3" />
                    <path id="Path_8724" data-name="Path 8724"
                      d="M223.688,243.034a.076.076,0,0,1-.029-.146c.023-.01,1.875-.878,2.048-6.806a.074.074,0,0,1,.079-.074.076.076,0,0,1,.074.078c-.176,6.057-2.061,6.908-2.142,6.942A.076.076,0,0,1,223.688,243.034Z"
                      transform="translate(-210.11 -224.695)" fill="#edd3c3" />
                    <path id="Path_8725" data-name="Path 8725"
                      d="M207.333,230.453c-1.36,0-2.98-3.438-3.049-3.584a.076.076,0,1,1,.138-.065c.016.035,1.647,3.5,2.911,3.5a1.91,1.91,0,0,0,1.371-.793.076.076,0,0,1,.115.1A2.05,2.05,0,0,1,207.333,230.453Z"
                      transform="translate(-195.526 -217.72)" fill="#edd3c3" />
                    <path id="Path_8726" data-name="Path 8726"
                      d="M224.075,233.219a.077.077,0,0,1-.042-.013.076.076,0,0,1-.022-.105,6.233,6.233,0,0,0,.43-.771.076.076,0,0,1,.139.062,6.273,6.273,0,0,1-.442.792A.076.076,0,0,1,224.075,233.219Z"
                      transform="translate(-210.402 -221.887)" fill="#edd3c3" />
                    <path id="Path_8727" data-name="Path 8727"
                      d="M204.475,200.469h-.011a.076.076,0,0,1-.064-.086,4.966,4.966,0,0,1,3.356-3.759.076.076,0,1,1,.046.146,4.811,4.811,0,0,0-3.252,3.636A.076.076,0,0,1,204.475,200.469Z"
                      transform="translate(-195.617 -194.982)" fill="#edd3c3" />
                    <path id="Path_8728" data-name="Path 8728"
                      d="M206.716,199.8a.075.075,0,0,1-.044-.014.076.076,0,0,1-.019-.106,4.815,4.815,0,0,1,.984-1.043.076.076,0,1,1,.083.128,4.76,4.76,0,0,0-.943,1A.076.076,0,0,1,206.716,199.8Z"
                      transform="translate(-197.308 -196.493)" fill="#edd3c3" />
                  </g>
                  <g id="Group_8143" data-name="Group 8143" transform="translate(9.313 1.802)">
                    <path id="Path_8729" data-name="Path 8729"
                      d="M207.178,205.4a22.081,22.081,0,0,1-1.967-3.127,5.3,5.3,0,0,1,1.495-3.56,3.574,3.574,0,0,1,2.458-1.416,5.422,5.422,0,0,1,1.259,1.18c.118.256.059,2.36.1,2.694s.315.865.334,1.18a13.581,13.581,0,0,1-1.337,2.97,1.906,1.906,0,0,1-1.317.511C207.945,205.778,207.493,205.9,207.178,205.4Z"
                      transform="translate(-205.193 -197.293)" fill="#da9b7c" />
                    <path id="Path_8730" data-name="Path 8730"
                      d="M206.706,198.887a5.3,5.3,0,0,0-1.495,3.56,6.3,6.3,0,0,0,.734,1.333c-.1-.213-.187-.428-.265-.649-.466-1.311.348-2.712,1.1-3.755a5.081,5.081,0,0,1,1.966-1.86A4.555,4.555,0,0,0,206.706,198.887Z"
                      transform="translate(-205.193 -197.462)" fill="#b37657" />
                    <path id="Path_8731" data-name="Path 8731"
                      d="M217.94,224.167a.65.65,0,0,1-.465-.144.053.053,0,0,1,.077-.074s.25.236.889.016a.053.053,0,0,1,.035.1A1.662,1.662,0,0,1,217.94,224.167Z"
                      transform="translate(-214.447 -217.388)" fill="#b37657" />
                    <path id="Path_8732" data-name="Path 8732"
                      d="M221.04,219.254a1.105,1.105,0,0,1,.329-.063.357.357,0,0,1,.124.073A.774.774,0,0,1,221.04,219.254Z"
                      transform="translate(-217.147 -213.809)" fill="#b37657" />
                    <path id="Path_8733" data-name="Path 8733"
                      d="M222.54,211.681a.187.187,0,0,0-.052-.048c-.023-.012-.08-.039-.1-.049l-.006,0,0,0v0a.05.05,0,0,0-.034,0,.9.9,0,0,1-.609.042.053.053,0,0,0-.034.1.958.958,0,0,0,.288.042.927.927,0,0,0,.4-.088s0,0,.006-.007Z"
                      transform="translate(-217.618 -208.069)" fill="#232a40" />
                    <path id="Path_8734" data-name="Path 8734"
                      d="M215.017,206.581a.053.053,0,0,1-.035-.013.891.891,0,0,0-1.08-.051.054.054,0,0,1-.074-.013.053.053,0,0,1,.013-.074,1.014,1.014,0,0,1,1.211.057.053.053,0,0,1-.034.094Z"
                      transform="translate(-211.699 -204.051)" fill="#232a40" />
                    <path id="Path_8735" data-name="Path 8735"
                      d="M222.336,207.055a.054.054,0,0,1-.019,0,.783.783,0,0,0-.634,0,.053.053,0,0,1-.051-.093.89.89,0,0,1,.724,0,.053.053,0,0,1-.019.1Z"
                      transform="translate(-217.572 -204.524)" fill="#232a40" />
                    <path id="Path_8736" data-name="Path 8736"
                      d="M214.764,211.762a1.5,1.5,0,0,1-.952-.068.049.049,0,0,0-.021,0s-.006-.006-.009-.006-.008,0-.011,0h0a1.091,1.091,0,0,0-.2.129l.2-.025a1.361,1.361,0,0,0,.594.116,2.174,2.174,0,0,0,.419-.043.053.053,0,0,0-.021-.1Z"
                      transform="translate(-211.516 -208.149)" fill="#232a40" />
                  </g>
                </g>
              </g>
            </g>
          </svg>
